<svg width="146" height="40" viewBox="0 0 146 40" fill="none" xmlns="http://www.w3.org/2000/svg">
<path d="M27.519 24.7052C27.519 20.5964 30.2581 17.4006 37.5628 17.4006H43.041V16.9443C43.041 14.6615 42.128 12.8354 38.9321 12.8354C35.7367 12.8354 34.8237 14.6615 34.8237 16.0309H28.432V15.5745C28.432 12.3787 31.6278 7.81356 38.9321 7.81356C46.2368 7.81356 49.4325 12.3787 49.4325 17.8573V31.0965H43.4976L43.0409 29.2704H42.5846C41.6716 30.1835 39.3888 31.5532 35.7367 31.5532C30.7148 31.5532 27.519 28.8137 27.519 24.7052ZM43.0409 21.5094H38.019C34.8236 21.5094 33.9102 22.8788 33.9102 24.2485C33.9102 25.6183 34.8236 26.5313 37.5627 26.5313C41.2149 26.5313 43.0409 24.2485 43.0409 21.5094ZM57.0998 31.0965L48.8822 8.72658V8.26989H55.2734L60.752 24.2485H61.2083L66.6869 8.26989H73.0781V8.72658L64.8608 31.0965H57.0998ZM74.1789 31.0967V8.27007H80.5701V31.0967H74.1789ZM83.0417 40V34.5604H87.1536C88.9812 34.5604 89.4383 34.1073 89.8954 32.7473L90.3521 31.4147V30.9597L81.6709 8.72345V8.27H88.0674L93.5505 23.6815H94.0073L99.4904 8.27H105.887V8.72345L96.749 32.2942C94.4643 38.1869 92.6367 40 87.1536 40H83.0417ZM107.013 31.0965V8.26989H112.948L113.404 10.0963H113.861C115.23 8.72658 117.056 7.81356 119.796 7.81356C125.73 7.81356 128.926 12.3787 128.926 16.9443V31.0965H122.535V17.8573C122.535 14.6615 121.165 13.2918 118.426 13.2918C115.687 13.2918 113.404 15.1178 113.404 18.7703V31.0965H107.013ZM140.889 31.0965C135.868 31.0965 133.585 27.4516 133.585 23.7992V13.7558H129.476V8.2772H133.585V1.88596H139.976V8.2772H144.998V10.9091V13.7557H139.976V23.7991C139.976 25.1689 140.433 25.6256 141.802 25.6256H145.455V31.0965H140.889ZM13.6293 31.5543C11.0168 31.5543 8.70228 31.1835 6.68599 30.4425C4.66922 29.7018 3.07592 28.558 1.90628 27.011C0.736171 25.4645 0.101007 23.5407 0.000752598 21.1081C-0.0122656 20.7919 0.144098 20.6763 0.431443 20.6763H7.21072C7.49762 20.6763 7.70584 20.8204 7.70584 21.1081V23.8188L13.2095 27.6665L18.7131 23.8188C18.7131 23.8188 18.7131 23.2243 18.7131 22.9468C18.7131 21.8904 18.3881 21.3749 17.7381 20.7768C17.0876 20.1787 16.2775 19.7387 15.1644 19.4017C14.03 19.0581 13.2094 18.8267 11.8953 18.5277C10.6208 18.2378 9.33482 17.9449 8.05512 17.5722C6.77475 17.1992 5.52337 16.6787 4.38206 16.0104C3.24101 15.3427 2.32243 14.4425 1.62635 13.3705C0.929807 12.2988 0.582025 10.9067 0.582025 9.19426C0.582025 7.32396 1.05912 5.69789 2.01373 4.31644C2.96813 2.9352 4.34246 1.87073 6.13675 1.12222C7.93104 0.374255 10.4811 0 13.0506 0C15.4046 0 17.7521 0.413673 19.5607 1.03211C21.3693 1.65098 22.7624 2.61127 23.8704 3.97815C25.0881 5.48051 25.8358 7.12291 25.8358 9.5588C25.8358 9.86244 25.7365 9.99542 25.4062 9.99542H19.1654C18.9071 9.99542 18.7132 9.85175 18.7132 9.56364V7.73429L13.2095 3.88658L7.70588 7.73429C7.70588 7.73429 7.69715 8.22495 7.70588 8.63702C7.72777 9.67131 8.02599 10.1592 8.72879 10.7048C9.43675 11.2544 10.4075 11.4137 11.5425 11.6919C12.8382 12.0096 13.7483 12.2148 14.7658 12.443C16.2027 12.7653 17.434 13.0372 18.8147 13.3948C20.1744 13.747 21.4589 14.3151 22.6075 14.9892C23.7556 15.6638 24.6777 16.4427 25.3739 17.5145C26.07 18.5865 26.4183 19.9858 26.4183 21.7124C26.4183 23.8419 25.9049 25.637 24.8788 27.0974C23.8525 28.558 22.3815 29.6657 20.4652 30.4209C18.5491 31.1765 16.2702 31.5543 13.6293 31.5543Z" fill="#10123D"/>
</svg>
